<svg preserveAspectRatio="none" width="100%" height="100%" overflow="visible" style="display: block;" viewBox="0 0 20 20" fill="none" xmlns="http://www.w3.org/2000/svg">
<g id="Checkbox Control">
<path d="M0 4C0 1.79086 1.79086 0 4 0H16C18.2091 0 20 1.79086 20 4V16C20 18.2091 18.2091 20 16 20H4C1.79086 20 0 18.2091 0 16V4Z" fill="var(--fill-0, #0C49FF)"/>
<path id="Vector" d="M16.1542 5.58976C16.5241 5.95963 16.5241 6.55919 16.1542 6.92888L9.45432 13.629C9.08445 13.9987 8.48508 13.9987 8.11521 13.629L4.69146 10.2051C4.3216 9.83538 4.3216 9.23582 4.69146 8.86613C5.06115 8.49626 5.66071 8.49626 6.03039 8.86613L8.78467 11.6204L14.8151 5.58976C15.185 5.22008 15.7846 5.22008 16.1542 5.58976Z" fill="var(--fill-0, white)"/>
</g>
</svg>
