<svg preserveAspectRatio="none" width="100%" height="100%" overflow="visible" style="display: block;" viewBox="0 0 88 88" fill="none" xmlns="http://www.w3.org/2000/svg">
<g id="insurance 1">
<g clip-path="url(#clip0_16_365)">
<path id="Vector" d="M88 0H0V88H88V0Z" fill="var(--fill-0, #FF281B)"/>
<path id="Vector_2" d="M43.5367 12.2244C44.3325 12.1519 45.1343 12.2653 45.8788 12.5559C46.5993 12.8414 47.2643 13.2903 47.9358 13.682C48.717 14.1395 49.5107 14.5751 50.3163 14.9882C53.7715 16.7663 57.4168 18.1474 61.1828 19.1055C62.6196 19.4717 64.071 19.7771 65.5334 20.0212C66.1568 20.1273 66.783 20.2175 67.411 20.2924C68.7274 20.4531 69.7134 20.5095 70.8652 21.2487C71.013 21.3431 71.1558 21.445 71.2935 21.5542C72.3921 22.4214 73.0939 23.6955 73.2403 25.0874C73.3309 25.9243 73.2847 27.4046 73.2843 28.3111L73.2833 34.184L73.2836 39.2595C73.284 40.828 73.2981 42.2293 73.1784 43.7956C72.6676 50.2607 70.2227 56.4223 66.1622 61.4787C64.5543 63.4875 62.7097 65.295 60.6692 66.8625C58.6918 68.3877 57.0447 69.2923 54.8951 70.4873L50.7616 72.783L47.8303 74.4128C46.6078 75.092 45.8855 75.6092 44.4568 75.7683C42.7793 75.9421 41.7485 75.2976 40.3623 74.5264L37.6563 73.0195L33.2215 70.5585C30.7116 69.1649 28.948 68.2007 26.6801 66.3647C20.0402 60.9876 15.8013 53.1988 14.8916 44.7033C14.6743 42.6109 14.7103 40.7581 14.7103 38.6648L14.7104 31.7298L14.7093 27.5531C14.7088 26.7286 14.6714 25.5274 14.7963 24.7548C14.9429 23.8643 15.3226 23.0283 15.8969 22.3319C16.5006 21.5822 17.305 21.0193 18.2164 20.7092C18.9777 20.4475 19.8195 20.3976 20.6196 20.2933C21.4595 20.1841 22.2967 20.0549 23.1305 19.9057C26.7887 19.2493 30.3657 18.2012 33.7996 16.7793C35.5827 16.0388 37.3232 15.1999 39.0133 14.2664C39.5171 13.9878 40.0162 13.7007 40.5102 13.4051C41.609 12.7479 42.2203 12.3617 43.5367 12.2244Z" fill="var(--fill-0, black)"/>
<path id="Vector_3" d="M58.353 44C58.353 44 51.9297 50.6219 44.0058 50.6219C36.0818 50.6219 29.6585 44 29.6585 44C29.6585 44 36.0818 37.3782 44.0058 37.3782C51.9297 37.3782 58.353 44 58.353 44Z" fill="var(--fill-0, white)"/>
<path id="Vector_4" d="M44.0065 49.045C46.8794 49.045 49.2093 46.7859 49.2093 43.9998C49.2093 41.2137 46.8799 38.9546 44.0065 38.9546C41.1329 38.9546 38.8036 41.2137 38.8036 43.9998C38.8036 46.7859 41.1329 49.045 44.0065 49.045Z" fill="var(--fill-0, black)"/>
</g>
</g>
<defs>
<clipPath id="clip0_16_365">
<rect width="88" height="88" rx="10" fill="white"/>
</clipPath>
</defs>
</svg>
